<svg viewBox="0 0 567 567" fill="none" xmlns="http://www.w3.org/2000/svg">
  <rect width="567" height="567" rx="40" fill="url(#paint0_linear_101_5)" />
  <path
    d="M475 51V114.295H93V51H475ZM239.889 51H317.979V393.63C317.979 408.822 319.947 420.495 323.889 428.652C328.108 436.81 333.597 442.439 340.349 445.533C347.103 448.344 354.419 449.753 362.3 449.753C370.178 449.753 377.494 448.626 384.249 446.376C391.003 444.127 396.769 441.595 401.555 438.78L418.862 494.056C405.915 503.34 393.254 509.248 380.872 511.78C368.49 514.591 355.687 516 342.461 516C321.074 516 302.641 511.78 287.164 503.34C271.97 494.9 260.291 481.399 252.13 462.833C243.97 444.265 239.889 419.792 239.889 389.41V51Z"
    fill="currentColor" />
  <defs>
    <linearGradient id="paint0_linear_101_5" x1="283.5" y1="0" x2="283.5" y2="567" gradientUnits="userSpaceOnUse">
      <stop stop-color="transparent" />
      <stop offset="0.715108" stop-color="transparent" />
    </linearGradient>
  </defs>
</svg>